<mxfile host="app.diagrams.net" agent="Mozilla/5.0 (X11; Linux x86_64) AppleWebKit/537.36 (KHTML, like Gecko) Chrome/136.0.0.0 Safari/537.36" version="27.0.6">
  <diagram name="Page-1" id="Oh6NkAZ1T_bWOPgk7Vpn">
    <mxGraphModel dx="1585" dy="875" grid="1" gridSize="10" guides="1" tooltips="1" connect="1" arrows="1" fold="1" page="1" pageScale="1" pageWidth="850" pageHeight="1100" math="0" shadow="0">
      <root>
        <mxCell id="0" />
        <mxCell id="1" parent="0" />
        <mxCell id="jt6wUPw65jqT-OyrpUs2-2" value="" style="rounded=0;whiteSpace=wrap;html=1;" parent="1" vertex="1">
          <mxGeometry x="40" y="20" width="510" height="270" as="geometry" />
        </mxCell>
        <mxCell id="bNnh8dUSCuRFfiPYBDCW-1" value="Product" style="swimlane;childLayout=stackLayout;horizontal=1;startSize=50;horizontalStack=0;rounded=1;fontSize=14;fontStyle=0;strokeWidth=2;resizeParent=0;resizeLast=1;shadow=0;dashed=0;align=center;arcSize=4;whiteSpace=wrap;html=1;" parent="1" vertex="1">
          <mxGeometry x="340" y="80" width="160" height="180" as="geometry" />
        </mxCell>
        <mxCell id="bNnh8dUSCuRFfiPYBDCW-2" value="+id&lt;div&gt;+category_id&lt;br&gt;+is_available&lt;br&gt;+name&lt;br&gt;+description&lt;div&gt;+created_at&lt;/div&gt;&lt;div&gt;+updated_at&lt;/div&gt;&lt;/div&gt;" style="align=left;strokeColor=none;fillColor=none;spacingLeft=4;spacingRight=4;fontSize=12;verticalAlign=top;resizable=0;rotatable=0;part=1;html=1;whiteSpace=wrap;" parent="bNnh8dUSCuRFfiPYBDCW-1" vertex="1">
          <mxGeometry y="50" width="160" height="130" as="geometry" />
        </mxCell>
        <mxCell id="hy9HGPHfDR2CPW-qq6lx-1" value="Category" style="swimlane;childLayout=stackLayout;horizontal=1;startSize=50;horizontalStack=0;rounded=1;fontSize=14;fontStyle=0;strokeWidth=2;resizeParent=0;resizeLast=1;shadow=0;dashed=0;align=center;arcSize=4;whiteSpace=wrap;html=1;" parent="1" vertex="1">
          <mxGeometry x="90" y="80" width="160" height="180" as="geometry" />
        </mxCell>
        <mxCell id="hy9HGPHfDR2CPW-qq6lx-2" value="+id&lt;div&gt;+name&lt;br&gt;&lt;div&gt;+created_at&lt;/div&gt;&lt;div&gt;+updated_at&lt;/div&gt;&lt;/div&gt;" style="align=left;strokeColor=none;fillColor=none;spacingLeft=4;spacingRight=4;fontSize=12;verticalAlign=top;resizable=0;rotatable=0;part=1;html=1;whiteSpace=wrap;" parent="hy9HGPHfDR2CPW-qq6lx-1" vertex="1">
          <mxGeometry y="50" width="160" height="130" as="geometry" />
        </mxCell>
        <mxCell id="hy9HGPHfDR2CPW-qq6lx-3" style="edgeStyle=orthogonalEdgeStyle;rounded=0;orthogonalLoop=1;jettySize=auto;html=1;endArrow=none;startFill=0;" parent="1" source="hy9HGPHfDR2CPW-qq6lx-2" target="bNnh8dUSCuRFfiPYBDCW-2" edge="1">
          <mxGeometry relative="1" as="geometry" />
        </mxCell>
        <mxCell id="hy9HGPHfDR2CPW-qq6lx-4" value="0..*" style="edgeLabel;html=1;align=center;verticalAlign=middle;resizable=0;points=[];" parent="hy9HGPHfDR2CPW-qq6lx-3" vertex="1" connectable="0">
          <mxGeometry x="0.4444" y="-1" relative="1" as="geometry">
            <mxPoint x="5" y="-6" as="offset" />
          </mxGeometry>
        </mxCell>
        <mxCell id="hy9HGPHfDR2CPW-qq6lx-5" value="" style="edgeStyle=orthogonalEdgeStyle;rounded=0;orthogonalLoop=1;jettySize=auto;html=1;endArrow=diamondThin;startFill=0;startArrow=none;endFill=1;" parent="1" source="bNnh8dUSCuRFfiPYBDCW-2" target="hy9HGPHfDR2CPW-qq6lx-2" edge="1">
          <mxGeometry relative="1" as="geometry" />
        </mxCell>
        <mxCell id="hy9HGPHfDR2CPW-qq6lx-7" value="1..1" style="edgeLabel;html=1;align=center;verticalAlign=middle;resizable=0;points=[];" parent="1" vertex="1" connectable="0">
          <mxGeometry x="279.9956603773585" y="190" as="geometry">
            <mxPoint x="-12" y="-1" as="offset" />
          </mxGeometry>
        </mxCell>
        <mxCell id="jt6wUPw65jqT-OyrpUs2-1" value="Products Catalog" style="text;html=1;align=center;verticalAlign=middle;resizable=0;points=[];autosize=1;strokeColor=none;fillColor=none;fontSize=18;fontStyle=1" parent="1" vertex="1">
          <mxGeometry x="210" y="20" width="160" height="40" as="geometry" />
        </mxCell>
        <mxCell id="d0JQZ3-jXf7AqVCyvAlW-15" value="" style="group" vertex="1" connectable="0" parent="1">
          <mxGeometry x="570" y="20" width="510" height="270" as="geometry" />
        </mxCell>
        <mxCell id="8Qy_GEnjm2oiMH0DrBhJ-1" value="" style="rounded=0;whiteSpace=wrap;html=1;" parent="d0JQZ3-jXf7AqVCyvAlW-15" vertex="1">
          <mxGeometry width="510" height="270" as="geometry" />
        </mxCell>
        <mxCell id="8Qy_GEnjm2oiMH0DrBhJ-2" value="User" style="swimlane;childLayout=stackLayout;horizontal=1;startSize=50;horizontalStack=0;rounded=1;fontSize=14;fontStyle=0;strokeWidth=2;resizeParent=0;resizeLast=1;shadow=0;dashed=0;align=center;arcSize=4;whiteSpace=wrap;html=1;" parent="d0JQZ3-jXf7AqVCyvAlW-15" vertex="1">
          <mxGeometry x="170" y="70" width="160" height="180" as="geometry" />
        </mxCell>
        <mxCell id="8Qy_GEnjm2oiMH0DrBhJ-3" value="+id&lt;div&gt;+name&lt;br&gt;&lt;div&gt;+email&lt;br&gt;+password&lt;br&gt;+status&lt;br&gt;&lt;div&gt;+created_at&lt;/div&gt;&lt;div&gt;+updated_at&lt;/div&gt;&lt;/div&gt;&lt;/div&gt;" style="align=left;strokeColor=none;fillColor=none;spacingLeft=4;spacingRight=4;fontSize=12;verticalAlign=top;resizable=0;rotatable=0;part=1;html=1;whiteSpace=wrap;" parent="8Qy_GEnjm2oiMH0DrBhJ-2" vertex="1">
          <mxGeometry y="50" width="160" height="130" as="geometry" />
        </mxCell>
        <mxCell id="8Qy_GEnjm2oiMH0DrBhJ-10" value="Users service" style="text;html=1;align=center;verticalAlign=middle;resizable=0;points=[];autosize=1;strokeColor=none;fillColor=none;fontSize=18;fontStyle=1" parent="d0JQZ3-jXf7AqVCyvAlW-15" vertex="1">
          <mxGeometry x="185" width="130" height="40" as="geometry" />
        </mxCell>
        <mxCell id="d0JQZ3-jXf7AqVCyvAlW-16" value="" style="group" vertex="1" connectable="0" parent="1">
          <mxGeometry x="40" y="300" width="510" height="270" as="geometry" />
        </mxCell>
        <mxCell id="d0JQZ3-jXf7AqVCyvAlW-1" value="" style="rounded=0;whiteSpace=wrap;html=1;" vertex="1" parent="d0JQZ3-jXf7AqVCyvAlW-16">
          <mxGeometry width="510" height="270" as="geometry" />
        </mxCell>
        <mxCell id="d0JQZ3-jXf7AqVCyvAlW-2" value="Orders" style="swimlane;childLayout=stackLayout;horizontal=1;startSize=50;horizontalStack=0;rounded=1;fontSize=14;fontStyle=0;strokeWidth=2;resizeParent=0;resizeLast=1;shadow=0;dashed=0;align=center;arcSize=4;whiteSpace=wrap;html=1;" vertex="1" parent="d0JQZ3-jXf7AqVCyvAlW-16">
          <mxGeometry x="290" y="70" width="160" height="180" as="geometry" />
        </mxCell>
        <mxCell id="d0JQZ3-jXf7AqVCyvAlW-3" value="+id&lt;div&gt;+user_id&lt;br&gt;&lt;div&gt;+status&lt;br&gt;&lt;div&gt;+created_at&lt;/div&gt;&lt;div&gt;+updated_at&lt;/div&gt;&lt;/div&gt;&lt;/div&gt;" style="align=left;strokeColor=none;fillColor=none;spacingLeft=4;spacingRight=4;fontSize=12;verticalAlign=top;resizable=0;rotatable=0;part=1;html=1;whiteSpace=wrap;" vertex="1" parent="d0JQZ3-jXf7AqVCyvAlW-2">
          <mxGeometry y="50" width="160" height="130" as="geometry" />
        </mxCell>
        <mxCell id="d0JQZ3-jXf7AqVCyvAlW-4" value="Orders service" style="text;html=1;align=center;verticalAlign=middle;resizable=0;points=[];autosize=1;strokeColor=none;fillColor=none;fontSize=18;fontStyle=1" vertex="1" parent="d0JQZ3-jXf7AqVCyvAlW-16">
          <mxGeometry x="180" width="140" height="40" as="geometry" />
        </mxCell>
        <mxCell id="d0JQZ3-jXf7AqVCyvAlW-5" value="OrderProduct" style="swimlane;childLayout=stackLayout;horizontal=1;startSize=50;horizontalStack=0;rounded=1;fontSize=14;fontStyle=0;strokeWidth=2;resizeParent=0;resizeLast=1;shadow=0;dashed=0;align=center;arcSize=4;whiteSpace=wrap;html=1;" vertex="1" parent="d0JQZ3-jXf7AqVCyvAlW-16">
          <mxGeometry x="50" y="70" width="160" height="180" as="geometry" />
        </mxCell>
        <mxCell id="d0JQZ3-jXf7AqVCyvAlW-6" value="+order_id&lt;div&gt;+product_id&lt;br&gt;+amount&lt;br&gt;+price&lt;br&gt;&lt;div&gt;+created_at&lt;/div&gt;&lt;div&gt;+updated_at&lt;/div&gt;&lt;/div&gt;" style="align=left;strokeColor=none;fillColor=none;spacingLeft=4;spacingRight=4;fontSize=12;verticalAlign=top;resizable=0;rotatable=0;part=1;html=1;whiteSpace=wrap;" vertex="1" parent="d0JQZ3-jXf7AqVCyvAlW-5">
          <mxGeometry y="50" width="160" height="130" as="geometry" />
        </mxCell>
        <mxCell id="d0JQZ3-jXf7AqVCyvAlW-7" style="edgeStyle=orthogonalEdgeStyle;rounded=0;orthogonalLoop=1;jettySize=auto;html=1;entryX=1;entryY=0.5;entryDx=0;entryDy=0;endArrow=diamondThin;endFill=1;" edge="1" parent="d0JQZ3-jXf7AqVCyvAlW-16" source="d0JQZ3-jXf7AqVCyvAlW-3" target="d0JQZ3-jXf7AqVCyvAlW-6">
          <mxGeometry relative="1" as="geometry" />
        </mxCell>
        <mxCell id="d0JQZ3-jXf7AqVCyvAlW-17" value="" style="group" vertex="1" connectable="0" parent="1">
          <mxGeometry x="570" y="300" width="510" height="270" as="geometry" />
        </mxCell>
        <mxCell id="d0JQZ3-jXf7AqVCyvAlW-8" value="" style="rounded=0;whiteSpace=wrap;html=1;" vertex="1" parent="d0JQZ3-jXf7AqVCyvAlW-17">
          <mxGeometry width="510" height="270" as="geometry" />
        </mxCell>
        <mxCell id="d0JQZ3-jXf7AqVCyvAlW-9" value="Payment" style="swimlane;childLayout=stackLayout;horizontal=1;startSize=50;horizontalStack=0;rounded=1;fontSize=14;fontStyle=0;strokeWidth=2;resizeParent=0;resizeLast=1;shadow=0;dashed=0;align=center;arcSize=4;whiteSpace=wrap;html=1;" vertex="1" parent="d0JQZ3-jXf7AqVCyvAlW-17">
          <mxGeometry x="170" y="60" width="160" height="180" as="geometry" />
        </mxCell>
        <mxCell id="d0JQZ3-jXf7AqVCyvAlW-10" value="+id&lt;div&gt;+order_id&lt;br&gt;&lt;div&gt;+status&lt;/div&gt;&lt;div&gt;+payment_method&lt;/div&gt;&lt;div&gt;+totalPrice&lt;br&gt;&lt;div&gt;+created_at&lt;/div&gt;&lt;div&gt;+updated_at&lt;/div&gt;&lt;/div&gt;&lt;/div&gt;" style="align=left;strokeColor=none;fillColor=none;spacingLeft=4;spacingRight=4;fontSize=12;verticalAlign=top;resizable=0;rotatable=0;part=1;html=1;whiteSpace=wrap;" vertex="1" parent="d0JQZ3-jXf7AqVCyvAlW-9">
          <mxGeometry y="50" width="160" height="130" as="geometry" />
        </mxCell>
        <mxCell id="d0JQZ3-jXf7AqVCyvAlW-11" value="Payment service" style="text;html=1;align=center;verticalAlign=middle;resizable=0;points=[];autosize=1;strokeColor=none;fillColor=none;fontSize=18;fontStyle=1" vertex="1" parent="d0JQZ3-jXf7AqVCyvAlW-17">
          <mxGeometry x="170" width="160" height="40" as="geometry" />
        </mxCell>
      </root>
    </mxGraphModel>
  </diagram>
</mxfile>
